<svg xmlns="http://www.w3.org/2000/svg" xml:space="preserve" width="8.26772in" height="11.6929in" version="1.1" style="shape-rendering:geometricPrecision; text-rendering:geometricPrecision; image-rendering:optimizeQuality; fill-rule:evenodd; clip-rule:evenodd"
      viewBox="0 0 8268 11693"
      xmlns:xlink="http://www.w3.org/1999/xlink">
      <g id="Layer_x0020_1">
      <metadata id="CorelCorpID_0Corel-Layer"/>
      <path class="fil0" d="M6276 4871c-99,26 -82,21 -116,176 -41,184 -109,552 -151,692l-74 347c-69,0 -220,-96 -286,-132l-269 -143 -1 63c11,4 22,8 35,15 20,12 14,7 27,23 -57,6 -255,15 -312,-12l-8 -5c-158,21 -255,71 -441,54l25 -58c-19,-14 -64,-8 -86,-4 -81,16 -115,71 -192,98 -203,71 -388,-110 -663,25 -42,20 -85,44 -134,58 -77,23 -95,14 -119,-28l-8 -14c-44,23 -106,45 -162,30 -7,-15 -11,-22 -10,-45 -58,-2 -93,-7 -87,-69 -72,-15 -115,-64 -156,-101l-816 3c0,-90 12,-188 -30,-256 -20,-33 -38,-50 -77,-69 -49,-24 -72,-12 -120,-25 1,-24 1,-167 10,-152l24 -7c36,-13 50,-30 85,-38 -5,-30 -14,-34 -17,-74 -50,12 -72,51 -98,35l-2 -104 -66 0 -3 88c0,1 0,3 0,5l-5 18c-30,-9 -53,-25 -78,-37 -24,9 -5,-15 -21,33 -4,13 -7,22 -10,36 23,6 32,13 55,24 12,6 49,16 60,23l-1 155c-97,8 -176,76 -181,179l-5 169 -231 0 -813 101c-66,11 -403,74 -435,100l-283 259 8504 2c42,-83 104,-124 192,-342l-472 -117c-127,-30 -431,-14 -582,-14l291 -884c61,-183 -31,-157 -190,-150 -247,12 -495,25 -742,36 -128,5 -681,39 -755,33z"/>
      <path class="fil1" d="M4926 3783c-28,110 55,279 86,382 45,149 33,268 -2,418 -57,245 -157,539 -326,632 -128,70 -278,27 -358,-51 -138,-132 -474,-830 -493,-951 -46,-157 -136,-136 -192,-146l-441 55c-249,90 -119,181 -212,390 -32,71 -15,202 -16,289l-13 442c17,165 -79,99 -86,208 -3,48 -1,104 -1,153 0,147 1,303 50,418l0 0 0 0c14,33 32,62 54,87 132,120 322,-15 687,20l262 4c0,0 198,0 313,8 115,8 230,0 230,0l539 21 8 5 251 -89c25,-14 564,-70 630,-72 222,-233 202,-1036 38,-1477 -6,-9 -25,-31 -29,-41 -11,-29 4,-17 -17,-52 -15,-25 -39,-57 -58,-87 -109,-176 -40,-215 -225,-334 -220,-142 -130,-142 -328,-233l-81 -14 -193 9c-21,-25 -53,33 -77,6zm93 2364c-2,5 -6,9 -12,15l12 -15z"/>
      <path class="fil2" d="M4015 4079c-42,52 -89,124 -182,134 19,121 355,819 493,951 80,78 230,121 358,51 169,-93 269,-387 326,-632 35,-150 47,-269 2,-418 -31,-103 -114,-272 -86,-382l-18 -2c-104,2 -68,0 -80,139 -12,143 -112,342 -175,468 -45,91 -96,197 -134,294 -90,234 -25,258 -58,369l-446 -972z"/>
      <path class="fil3" d="M4015 4079l446 972c33,-111 -32,-135 58,-369 38,-97 89,-203 134,-294 63,-126 163,-325 175,-468 12,-139 -24,-137 80,-139 -36,-13 -38,5 -75,-19 -18,-11 -35,-28 -51,-41 -29,-24 -74,-60 -85,-107 -235,-295 -457,-303 -669,-60 24,90 48,176 52,274 4,120 -27,162 -65,251z"/>
      <g id="_2168088712592">
      <path class="fil4" d="M938 5223c91,5 332,72 376,128 55,-46 62,-156 25,-223 -21,-37 -25,-22 -9,-60l-72 -13 81 -4c31,-46 28,-115 8,-167l-138 70c30,-33 101,-72 121,-102 -56,-96 -203,-145 -314,-55 -71,59 -102,164 -58,253 33,65 22,22 3,86 47,13 88,53 130,65 -36,-5 -72,-23 -106,-33l-38 -2 -9 57z"/>
      <path class="fil1" d="M1103 5997c-1,33 -3,48 45,50 47,2 49,-16 49,-16 0,1 2,-5 2,-7 2,-16 2,-6 0,-21 -13,-50 -2,-103 -4,-155 -2,-43 4,-114 -2,-155 147,-30 226,-203 121,-342 -44,-56 -285,-123 -376,-128 2,70 20,85 42,134 -93,153 -21,302 127,338 -7,42 7,263 -4,302z"/>
      </g>
      <path class="fil4" d="M724 6074c0,208 -67,166 407,166 71,0 359,16 398,-13 20,-40 8,-197 8,-254l-1 -4 -1 -159c-48,-15 -114,29 -169,47 -56,18 -128,35 -192,36 2,15 2,5 0,21 0,2 -2,8 -2,7 0,0 -2,18 -49,16 -48,-2 -46,-17 -45,-50 -54,17 -211,-40 -269,-65 -10,-5 -28,-14 -38,-17 -77,-23 -44,158 -47,269z"/>
      <path class="fil5" d="M5356 5936l269 144c66,35 217,132 286,132l74 -347c-65,1 -604,57 -629,71z"/>
      <path class="fil4" d="M1957 5279l66 1c69,-21 116,-66 127,-133 8,-55 3,-44 -24,-59 19,-14 21,-39 0,-54 -13,-9 -32,3 -59,3 15,-14 21,-19 29,-43 -41,-17 -78,-45 -141,-31 -153,34 -187,262 2,316z"/>
      <path class="fil4" d="M1839 5423c4,-14 7,-23 11,-36 16,-49 -3,-25 21,-33 -44,-36 -15,-94 -129,-90 5,16 8,18 16,30l-62 -10c-75,120 13,172 69,170 38,-1 49,-20 74,-31z"/>
      <path class="fil4" d="M2123 5349c3,40 12,44 17,73 44,26 90,57 143,7 47,-46 36,-95 1,-142l-62 7c8,-14 10,-14 17,-29 -73,-5 -102,24 -116,84z"/>
      <g id="head">
      <path class="fil0" d="M3294 3986c-60,140 142,546 288,539 60,19 204,38 269,24 92,-16 134,-91 173,-146 32,-91 60,-134 49,-254 -10,-97 -40,-182 -69,-270 -15,-26 -26,-19 -50,-64 -40,-76 -89,-140 -128,-223 -61,-129 -66,-248 35,-349 54,-55 275,-157 386,-309l86 -129c1,-2 3,-4 4,-5 1,-1 3,-3 5,-5 35,122 159,50 314,167 95,71 151,153 228,274 95,151 5,158 -58,345 -10,30 -17,62 -20,97 -7,113 49,100 -51,172 -18,14 -58,43 -80,46 14,46 61,80 92,102 17,12 35,28 53,38 39,21 40,3 76,14l19 0c25,27 42,60 65,83 24,25 53,50 84,68 56,33 166,57 230,9 -25,-59 -85,-123 -111,-191l82 9c-11,-203 131,-321 113,-552 -20,-256 -187,-306 -228,-485 -53,-224 85,-384 -80,-589 -208,-257 -860,-238 -1119,-147 -398,138 -256,402 -406,623 -46,68 -106,125 -167,184 -51,49 -127,106 -109,224 43,290 34,678 25,700z"/>
      <path class="fil6" d="M4004 3879c41,13 87,45 141,64 54,19 109,31 171,36 111,8 279,-19 359,-83 22,-3 62,-32 80,-46 100,-72 44,-59 51,-172 3,-35 10,-67 20,-97 63,-187 153,-194 58,-345 -77,-121 -133,-203 -228,-274 -155,-117 -279,-45 -314,-167 -2,2 -4,4 -5,5 -1,1 -3,3 -4,5l-86 129c-111,152 -332,254 -386,309 -101,101 -96,220 -35,349 39,83 88,147 128,223 24,45 35,38 50,64z"/>
      </g>
      <g id="left-hand">
      <path class="fil4" d="M2778 6067c41,38 84,87 155,103 39,-39 25,-39 82,-80l37 -28c-86,2 -131,-34 -79,-107 18,-26 95,-76 132,-97 103,-58 218,-93 358,-95 25,-243 -188,-1107 -30,-1230l-43 -18c-168,-13 -292,-66 -470,-67 -16,-140 -23,-112 17,-239l48 18c32,-22 41,-102 37,-144 -249,88 -120,180 -216,388 -33,70 -17,201 -19,288l-17 442c16,166 -80,99 -88,208 -4,47 -2,104 -3,153 -2,188 -2,392 99,505z"/>
      <path class="fil6" d="M3229 3150c-5,59 -153,334 -258,384l-50 19c-73,49 92,395 89,527 4,43 -4,122 -37,145 97,48 236,59 354,70 2,-66 16,-206 43,-260 18,-38 32,-57 46,-101 12,-38 11,-93 28,-125l0 -40c76,-17 99,49 152,54 93,8 28,-105 30,-114 16,-29 40,-27 41,-68 2,-90 -122,-102 -170,-153 2,-52 14,-53 -28,-86 -51,-12 -172,34 -225,48 0,-121 65,-226 73,-338 -63,6 -67,57 -88,38z"/>
      <path class="fil2" d="M3378 4512c6,-83 88,-104 37,-231 -26,9 -53,14 -88,14 -118,-11 -257,-22 -354,-70l-48 -19c-40,127 -33,99 -17,239 178,1 302,54 470,67z"/>
      <path class="fil1" d="M3453 5736l0 0c-1,9 -1,17 -2,24l-3 0c-14,72 -73,284 -263,368 -201,88 -270,46 -285,34 -59,-20 -97,-63 -134,-97 -101,-114 -101,-318 -99,-506 1,-49 -1,-105 3,-153 8,-109 104,-42 88,-208l18 -441c1,-88 -15,-218 18,-289 96,-208 -33,-300 216,-388 4,43 -4,122 -37,145l-48 -19c-40,127 -33,99 -17,239 178,1 302,54 470,67l43 18c-153,120 42,935 32,1206l0 0z"/>
      </g>
      <g id="right-hand">
      <path class="fil6" d="M3072 5915c-15,61 19,71 76,81 -4,23 -1,30 4,45 53,23 118,10 165,-7l6 15c17,45 35,57 114,45 50,-8 96,-25 140,-40 291,-94 449,110 660,68 81,-16 121,-66 204,-70 23,-1 68,-1 85,16l14 -30c51,-132 -35,-316 -85,-350 -137,-16 -269,-13 -406,-23 -167,-13 -251,-64 -400,-85 -138,-16 -257,3 -367,47 -40,17 -122,56 -143,80 -61,65 -21,107 65,116l-41 24c-61,33 -48,34 -91,68z"/>
      <path class="fil1" d="M4677 5616l362 -19 140 -4c209,25 499,-83 549,-64 205,77 250,143 258,351 -26,120 -139,266 -221,304l-572 -38 -171 -27 -81 13 -264 -161 0 -355z"/>
      <path class="fil7" d="M4455 5688c50,34 136,218 85,350l-14 30 -33 54c181,43 285,6 444,7 21,-14 17,-21 27,-51 39,-115 -23,-131 -23,-300 0,-48 8,-90 -27,-109 -54,-29 -201,-56 -264,-53 -22,1 -209,36 -195,72z"/>
      </g>
      </g>
  </svg>